<mxfile host="www.draw.io" modified="2023-11-29T07:43:10.966Z" agent="Mozilla/5.0 (Windows NT 10.0; Win64; x64) AppleWebKit/537.36 (KHTML, like Gecko) Chrome/119.0.0.0 Safari/537.36 Edg/119.0.0.0" etag="RvtkW_nEE9JMjmiCQxij" version="22.1.4" type="device">
  <diagram name="第 1 页" id="vFsQ0rteIm3TUEzYmUzV">
    <mxGraphModel dx="679" dy="374" grid="1" gridSize="10" guides="1" tooltips="1" connect="1" arrows="1" fold="1" page="1" pageScale="1" pageWidth="1920" pageHeight="1200" math="0" shadow="0">
      <root>
        <mxCell id="0" />
        <mxCell id="1" parent="0" />
        <mxCell id="nn2LZSgIvj9Dru7fc94c-7" style="edgeStyle=orthogonalEdgeStyle;rounded=0;orthogonalLoop=1;jettySize=auto;html=1;exitX=1;exitY=0.5;exitDx=0;exitDy=0;entryX=0;entryY=0.5;entryDx=0;entryDy=0;" parent="1" source="nn2LZSgIvj9Dru7fc94c-1" target="nn2LZSgIvj9Dru7fc94c-2" edge="1">
          <mxGeometry relative="1" as="geometry" />
        </mxCell>
        <mxCell id="nn2LZSgIvj9Dru7fc94c-1" value="确认FPGA核心板已经正确插入" style="rounded=1;whiteSpace=wrap;html=1;fillColor=#fff2cc;strokeColor=#d6b656;" parent="1" vertex="1">
          <mxGeometry x="320" y="270" width="180" height="50" as="geometry" />
        </mxCell>
        <mxCell id="nn2LZSgIvj9Dru7fc94c-8" style="edgeStyle=orthogonalEdgeStyle;rounded=0;orthogonalLoop=1;jettySize=auto;html=1;entryX=0;entryY=0.5;entryDx=0;entryDy=0;" parent="1" source="nn2LZSgIvj9Dru7fc94c-2" target="nn2LZSgIvj9Dru7fc94c-4" edge="1">
          <mxGeometry relative="1" as="geometry" />
        </mxCell>
        <mxCell id="nn2LZSgIvj9Dru7fc94c-2" value="正确设置时钟和核选通拨码开关" style="rounded=1;whiteSpace=wrap;html=1;fillColor=#fff2cc;strokeColor=#d6b656;" parent="1" vertex="1">
          <mxGeometry x="525" y="270" width="180" height="50" as="geometry" />
        </mxCell>
        <mxCell id="nn2LZSgIvj9Dru7fc94c-10" style="edgeStyle=orthogonalEdgeStyle;rounded=0;orthogonalLoop=1;jettySize=auto;html=1;exitX=0;exitY=0.5;exitDx=0;exitDy=0;entryX=1;entryY=0.5;entryDx=0;entryDy=0;" parent="1" source="nn2LZSgIvj9Dru7fc94c-3" target="nn2LZSgIvj9Dru7fc94c-5" edge="1">
          <mxGeometry relative="1" as="geometry" />
        </mxCell>
        <mxCell id="nn2LZSgIvj9Dru7fc94c-3" value="确认电源选择开关正确设置" style="rounded=1;whiteSpace=wrap;html=1;fillColor=#fff2cc;strokeColor=#d6b656;" parent="1" vertex="1">
          <mxGeometry x="730" y="349" width="180" height="50" as="geometry" />
        </mxCell>
        <mxCell id="nn2LZSgIvj9Dru7fc94c-9" style="edgeStyle=orthogonalEdgeStyle;rounded=0;orthogonalLoop=1;jettySize=auto;html=1;entryX=1;entryY=0.5;entryDx=0;entryDy=0;" parent="1" source="nn2LZSgIvj9Dru7fc94c-4" target="nn2LZSgIvj9Dru7fc94c-3" edge="1">
          <mxGeometry relative="1" as="geometry">
            <Array as="points">
              <mxPoint x="930" y="300" />
              <mxPoint x="930" y="374" />
            </Array>
          </mxGeometry>
        </mxCell>
        <mxCell id="nn2LZSgIvj9Dru7fc94c-4" value="安装串口驱动和串口调试软件" style="rounded=1;whiteSpace=wrap;html=1;fillColor=#dae8fc;strokeColor=#6c8ebf;" parent="1" vertex="1">
          <mxGeometry x="730" y="270" width="180" height="50" as="geometry" />
        </mxCell>
        <mxCell id="nn2LZSgIvj9Dru7fc94c-11" style="edgeStyle=orthogonalEdgeStyle;rounded=0;orthogonalLoop=1;jettySize=auto;html=1;exitX=0;exitY=0.5;exitDx=0;exitDy=0;entryX=1;entryY=0.5;entryDx=0;entryDy=0;" parent="1" source="nn2LZSgIvj9Dru7fc94c-5" target="nn2LZSgIvj9Dru7fc94c-6" edge="1">
          <mxGeometry relative="1" as="geometry" />
        </mxCell>
        <mxCell id="nn2LZSgIvj9Dru7fc94c-5" value="确认功能切换开关正确设置" style="rounded=1;whiteSpace=wrap;html=1;fillColor=#fff2cc;strokeColor=#d6b656;" parent="1" vertex="1">
          <mxGeometry x="525" y="349" width="180" height="50" as="geometry" />
        </mxCell>
        <mxCell id="nn2LZSgIvj9Dru7fc94c-6" value="板卡上电，打开串口并手动复位" style="rounded=1;whiteSpace=wrap;html=1;fillColor=#dae8fc;strokeColor=#6c8ebf;" parent="1" vertex="1">
          <mxGeometry x="320" y="349" width="180" height="50" as="geometry" />
        </mxCell>
      </root>
    </mxGraphModel>
  </diagram>
</mxfile>
